<svg id="Layer_1" data-name="Layer 1" xmlns="http://www.w3.org/2000/svg" viewBox="0 0 73.76 77.55"><defs><style>.cls-1{fill:#fff;}.cls-2{fill:none;stroke:#003056;stroke-linecap:round;stroke-linejoin:round;stroke-width:0;}</style></defs><title>au-shield</title><path class="cls-1" d="M43.34,30.3H40.72a.14.14,0,0,0-.13.2,3.82,3.82,0,0,1,.28.86c0,.25.1,1,.1,1.15a7.45,7.45,0,0,0,2.27,5.36.8.8,0,0,1,.25.58v1.86c0,1-3,1.75-6.62,1.75s-6.62-.78-6.62-1.75V38.46a.8.8,0,0,1,.09-.35c.54-.66,2.94-1.43,8.76-1.07,0,0-.31-.67-3.21-1.32a3.64,3.64,0,0,1-3.1-3.58h0a4.09,4.09,0,0,1,.07-.76,3.82,3.82,0,0,1,.28-.86.14.14,0,0,0-.13-.2H30.41L27.52,44.49H46.23Z"/><path class="cls-1" d="M19,72.93l.68.37a36.87,36.87,0,0,0,34.37,0l.68-.37a36.86,36.86,0,0,0,19-32.26V0H0V40.67A36.86,36.86,0,0,0,19,72.93Zm32.22-2.45L47.42,59.21H26.34L22.52,70.48q-1.39-.67-2.71-1.47L22.6,55.35l-1.94-2.58H53.1l-1.94,2.58L53.95,69Q52.63,69.81,51.23,70.48ZM26.6,23.8H47.15l-1.95,2.62,3.68,18.09,3.83,0,.53,2.6H20.51l.53-2.6h3.83L28.56,26.4ZM3.79,3.79H70V40.67a33,33,0,0,1-8.38,22L53.27,22.53l2.37-3.14V18.1H18.12v1.29l2.37,3.14L12.17,62.66a33,33,0,0,1-8.38-22Z"/><path class="cls-1" d="M36.87,40.06a1.48,1.48,0,0,1-1.31-.81c-1.87.1-3.24.39-3.24.74s2,.78,4.55.78,4.55-.35,4.55-.78-1.37-.65-3.24-.74A1.48,1.48,0,0,1,36.87,40.06Z"/><polygon class="cls-1" points="59.68 11.38 14.08 11.38 13.28 15.25 60.48 15.25 59.68 11.38"/><line class="cls-2" x1="19.02" y1="72.93" x2="19.69" y2="73.3"/><line class="cls-2" x1="54.74" y1="72.93" x2="54.07" y2="73.3"/></svg>